<svg width="20" height="20" viewBox="0 0 20 20" fill="none" xmlns="http://www.w3.org/2000/svg">
  <path d="M10 13C11.66 13 13 11.66 13 10C13 8.34 11.66 7 10 7C8.34 7 7 8.34 7 10C7 11.66 8.34 13 10 13Z" stroke="currentColor" stroke-width="1.5" fill="none"/>
  <path d="M16.24 12.24C16.08 12.59 16.08 12.99 16.24 13.34L16.82 14.58C17.11 15.2 16.93 15.93 16.4 16.35L15.52 17.06C15.09 17.4 14.49 17.44 14.02 17.16L12.88 16.5C12.56 16.31 12.18 16.24 11.8 16.31L11.2 16.43C10.82 16.51 10.5 16.73 10.29 17.04L9.6 18.1C9.26 18.62 8.6 18.84 8.02 18.62L7.02 18.25C6.54 18.07 6.2 17.62 6.16 17.1L6.08 15.84C6.06 15.45 5.88 15.09 5.59 14.84L4.65 14.05C4.3 13.74 4.14 13.27 4.22 12.82L4.44 11.58C4.5 11.2 4.42 10.82 4.22 10.5L3.52 9.38C3.23 8.9 3.23 8.3 3.52 7.82L4.22 6.7C4.42 6.38 4.5 6 4.44 5.62L4.22 4.38C4.14 3.93 4.3 3.46 4.65 3.15L5.59 2.36C5.88 2.11 6.06 1.75 6.08 1.36L6.16 0.1" stroke="currentColor" stroke-width="1.3" fill="none" opacity="0.3"/>
  <path d="M8.15 2.59C8.46 2.09 9.11 1.88 9.66 2.1L10.2 2.32C10.65 2.5 11.15 2.5 11.6 2.32L12.14 2.1C12.69 1.88 13.34 2.09 13.65 2.59L13.96 3.1C14.2 3.5 14.58 3.78 15.02 3.89L15.6 4.04C16.18 4.18 16.58 4.7 16.58 5.3V5.88C16.58 6.34 16.76 6.78 17.08 7.1L17.48 7.5C17.88 7.9 17.98 8.52 17.7 9.04L17.4 9.6C17.18 10.02 17.14 10.5 17.28 10.94L17.46 11.5C17.64 12.06 17.42 12.68 16.92 12.98L16.4 13.28C16 13.52 15.72 13.9 15.62 14.34L15.48 14.94C15.34 15.52 14.82 15.92 14.22 15.92H13.64C13.18 15.92 12.74 16.1 12.42 16.42L12 16.84C11.6 17.24 10.98 17.34 10.46 17.06L9.9 16.76C9.5 16.54 9.02 16.5 8.58 16.64L8 16.82C7.42 17 6.8 16.78 6.5 16.28L6.2 15.76C5.96 15.36 5.58 15.08 5.14 14.98L4.54 14.84C3.96 14.7 3.56 14.18 3.56 13.58V13C3.56 12.54 3.38 12.1 3.06 11.78L2.66 11.38C2.26 10.98 2.16 10.36 2.44 9.84L2.74 9.28C2.96 8.88 3 8.4 2.86 7.96L2.68 7.38C2.5 6.82 2.72 6.2 3.22 5.9L3.74 5.6C4.14 5.36 4.42 4.98 4.52 4.54L4.66 3.94C4.8 3.36 5.32 2.96 5.92 2.96H6.5C6.96 2.96 7.4 2.78 7.72 2.46L8.15 2.59Z" stroke="currentColor" stroke-width="1.5" fill="none"/>
</svg>
